<?xml version="1.0" encoding="utf-8"?>
<!-- Generator: Adobe Illustrator 22.0.1, SVG Export Plug-In . SVG Version: 6.00 Build 0)  -->
<svg version="1.1" id="Camada_1" xmlns="http://www.w3.org/2000/svg" xmlns:xlink="http://www.w3.org/1999/xlink" x="0px" y="0px"
	 viewBox="0 0 1000 1000" style="enable-background:new 0 0 1000 1000;" xml:space="preserve">
<style type="text/css">
	.st0{fill:#666666;}
	.st1{fill:#4c1d97;}
</style>
<g>
	<path class="st0" d="M721.6,528L500.4,302.7L279.3,528c-6.7,6.9-14.4,12.1-23.1,15.7c-8.7,3.5-17.5,5.2-26.4,5.2s-17.6-1.7-26-5.2
		S187.7,535,181,528c-13.9-13.9-21-30.6-21-50s7-36,21-50l266-272.3c6.7-6.9,14.9-12.4,24.2-16.4c9.4-4,18.9-6.2,28.6-6.8
		c9.6-0.5,18.8,0.7,27.8,3.8c8.9,3,16.3,7.9,22.1,14.9l270.2,276.9c15,15.5,21.6,34.4,19.9,56.6c-0.9,12.2-5.1,24-12.2,34
		c-8.3,11.7-18.5,20-30.8,25c-8.7,3.6-17.5,5.2-26.4,5.2s-17.6-1.7-26-5.2C735.9,540.3,728.3,535,721.6,528L721.6,528z"/>
</g>
<g>
	<path class="st1" d="M322,644c-8.4-9-17.6-16.8-27.7-23.6L240,676c-14,14-21,30.6-21,50c0,19.4,7.1,36.1,21,50
		c6.7,7,14.4,12.2,22.8,15.7c8.4,3.5,17.1,5.2,26,5.2c8.9,0,17.7-1.7,26.4-5.2c8.7-3.6,16.4-8.8,23.1-15.7l60.2-61.4
		C367.8,697.5,345.4,670.3,322,644z"/>
	<path class="st1" d="M679,644c8.4-9,17.6-16.8,27.7-23.6L761,676c14,14,21,30.6,21,50c0,19.4-7.1,36.1-21,50
		c-6.7,7-14.4,12.2-22.8,15.7c-8.4,3.5-17.1,5.2-26,5.2c-8.9,0-17.7-1.7-26.4-5.2c-8.7-3.6-16.4-8.8-23.1-15.7l-60.2-61.4
		C633.2,697.5,655.6,670.3,679,644z"/>
	<path class="st1" d="M549.7,459.2c-5.8-7-13.2-11.9-22.1-14.9c-9-3.1-18.2-4.3-27.8-3.8c-9.7,0.6-19.2,2.8-28.6,6.8
		c-9.3,4-17.5,9.5-24.2,16.4L272.8,642.1c36.4,32,70.9,61.7,110.1,88.4l117.6-119.8L661,774.3c1.9-3,3.6-5.8,6-8.3
		c10-12,23-19,34-30c21.5-19.7,41.4-39.4,63.2-56.9L549.7,459.2z"/>
</g>
</svg>
